Coordinates
version=1
nRows=19
nColumns=24
inDegrees=yes

Units are S.I. units (second, meters, Newtons, ...)
Angles are in degrees.

endheader
time	pelvis_tilt	pelvis_list	pelvis_rotation	pelvis_tx	pelvis_ty	pelvis_tz	hip_flexion_r	hip_adduction_r	hip_rotation_r	knee_angle_r	ankle_angle_r	subtalar_angle_r	mtp_angle_r	hip_flexion_l	hip_adduction_l	hip_rotation_l	knee_angle_l	ankle_angle_l	subtalar_angle_l	mtp_angle_l	lumbar_extension	lumbar_bending	lumbar_rotation
      1.50400000	     -5.53028684	      7.48618446	     -1.75587999	      0.38904965	      0.89113165	      0.26396209	     19.77173378	    -11.52948527	     -8.44255491	    -71.16654763	      9.90675202	      9.32214780	     10.54268399	     19.17067866	     11.29089614	     -4.18573882	    -22.85569856	     10.72371703	     -7.75165079	      1.22843796	     -0.62430678	    -12.42469033	      4.98654259
      1.50816667	     -5.48368447	      7.31702877	     -1.59456345	      0.39391514	      0.89245363	      0.26367333	     20.36692078	    -11.30823754	     -8.53804394	    -70.72555659	     10.38347460	      9.18557077	     10.50966233	     18.49387984	     11.20687033	     -3.91890675	    -22.35152956	     10.71876167	     -7.66170789	      1.23964916	     -0.72927240	    -12.23170931	      4.76383609
      1.51233333	     -5.38297721	      7.14993799	     -1.42725521	      0.39884272	      0.89387141	      0.26333210	     20.87215309	    -11.11359363	     -8.66706996	    -70.20588244	     10.74093308	      9.08257598	     10.43117072	     17.72286559	     11.13983727	     -3.59279991	    -21.77759453	     10.72196591	     -7.66553358	      1.25627786	     -0.87114681	    -12.03203870	      4.33072228
      1.51650000	     -5.29924078	      6.97228290	     -1.24250032	      0.40371932	      0.89522180	      0.26298943	     21.38259828	    -10.90584430	     -8.80960854	    -69.64020707	     11.11631785	      8.92611870	     10.35515410	     16.98813096	     11.05336097	     -3.27109342	    -21.23279016	     10.71094703	     -7.63791029	      1.26960642	     -1.00819715	    -11.81888574	      3.99682483
      1.52066667	     -5.20771795	      6.79502706	     -1.05128358	      0.40859401	      0.89655711	      0.26263569	     21.86826299	    -10.70520598	     -8.96289012	    -69.02190967	     11.45839584	      8.74693329	     10.26948361	     16.24206627	     10.96438662	     -2.93868101	    -20.67880836	     10.69073884	     -7.61809535	      1.28088187	     -1.15599143	    -11.60933632	      3.64350266
      1.52483333	     -5.11219590	      6.61574907	     -0.84965115	      0.41346442	      0.89787068	      0.26226190	     22.33084542	    -10.50991516	     -9.13001436	    -68.34930705	     11.76750664	      8.54068014	     10.17073486	     15.49114303	     10.87048390	     -2.59529233	    -20.11959030	     10.66440237	     -7.60795017	      1.29066355	     -1.30425239	    -11.39418133	      3.28043059
      1.52900000	     -5.02362691	      6.44706237	     -0.63220269	      0.41831986	      0.89913294	      0.26185930	     22.78702773	    -10.33509769	     -9.30915314	    -67.63528028	     12.07617389	      8.32174061	      9.99892839	     14.74502374	     10.78987050	     -2.21441775	    -19.54690137	     10.59010733	     -7.64232266	      1.30191440	     -1.44914138	    -11.19701655	      2.83847631
      1.53316667	     -4.91114402	      6.25294644	     -0.42234295	      0.42319103	      0.90040586	      0.26147732	     23.19425802	    -10.13163898	     -9.49714871	    -66.85326338	     12.29944523	      8.04705224	      9.88126618	     13.97881130	     10.66668163	     -1.87448707	    -18.99060736	     10.59464729	     -7.60964341	      1.30909555	     -1.61288486	    -10.95275995	      2.53863671
      1.53733333	     -4.81510695	      6.04921071	     -0.18576739	      0.42800868	      0.90161800	      0.26108987	     23.59832943	     -9.91782690	     -9.70015905	    -66.01830681	     12.54180282	      7.73265812	      9.80270948	     13.25114911	     10.52545543	     -1.52270005	    -18.46619512	     10.55148507	     -7.55189278	      1.31252755	     -1.78005228	    -10.72424330	      2.26308137
      1.54150000	     -4.70373624	      5.89125106	      0.04380061	      0.43286817	      0.90279403	      0.26063936	     23.98207975	     -9.77888477	     -9.90929451	    -65.16279420	     12.72588098	      7.43182567	      9.58036905	     12.46942269	     10.44471014	     -1.11310330	    -17.85689078	     10.48204644	     -7.65342848	      1.31700544	     -1.93403072	    -10.50966279	      1.70547192
      1.54566667	     -4.59396067	      5.68395354	      0.27545931	      0.43770453	      0.90394427	      0.26025856	     24.33787949	     -9.56657045	    -10.11968793	    -64.22628873	     12.86053777	      7.05233664	      9.48128049	     11.72770058	     10.28294371	     -0.78149117	    -17.32907905	     10.48002882	     -7.59300903	      1.31974570	     -2.09598645	    -10.26674361	      1.47571986
      1.54983333	     -4.47939603	      5.52228876	      0.51423665	      0.44253642	      0.90503496	      0.25981448	     24.68681229	     -9.42414010	    -10.33356422	    -63.27899471	     12.98604042	      6.67534792	      9.24601866	     10.95545923	     10.17974152	     -0.38094723	    -16.73387458	     10.40825437	     -7.65666404	      1.32196697	     -2.27086724	    -10.04649699	      0.94709956
      1.55400000	     -4.37305256	      5.31407293	      0.76305314	      0.44736879	      0.90608647	      0.25940905	     25.00837141	     -9.22415724	    -10.57065630	    -62.25015817	     13.06172893	      6.23855244	      9.14557913	     10.22894866	     10.00225147	     -0.06055835	    -16.21857697	     10.39823141	     -7.58506728	      1.32426926	     -2.41507833	     -9.79226460	      0.73639128
      1.55816667	     -4.26250837	      5.16030378	      0.99945444	      0.45219365	      0.90706568	      0.25897499	     25.33379702	     -9.09100620	    -10.77934818	    -61.22043054	     13.11547549	      5.80968619	      8.86335425	      9.46528414	      9.89106925	      0.33528404	    -15.62350753	     10.33707699	     -7.66000587	      1.32768272	     -2.57985288	     -9.58254828	      0.18579331
      1.56233333	     -4.14700161	      4.97499743	      1.22611275	      0.45702705	      0.90801459	      0.25858350	     25.62863383	     -8.91180385	    -10.98963836	    -60.12332189	     13.09214691	      5.31441121	      8.69871354	      8.72096084	      9.72420930	      0.64123012	    -15.07920520	     10.35515165	     -7.61370583	      1.33146763	     -2.73221906	     -9.33344108	     -0.08111009
      1.56650000	     -4.03819110	      4.80359702	      1.46445657	      0.46184886	      0.90889584	      0.25818345	     25.91539674	     -8.75322253	    -11.20419979	    -58.99257961	     13.06517520	      4.81451364	      8.51466899	      7.98666589	      9.56749979	      0.96668132	    -14.53340403	     10.33673030	     -7.58907233	      1.33581948	     -2.88031598	     -9.11162249	     -0.45077952
      1.57066667	     -3.94439410	      4.65221750	      1.72286624	      0.46666541	      0.90969189	      0.25773330	     26.20255650	     -8.63523060	    -11.44396159	    -57.83924939	     13.05561851	      4.32914102	      8.12162226	      7.26698443	      9.43321873	      1.32889861	    -13.97809061	     10.24740899	     -7.63747167	      1.34675682	     -3.00838424	     -8.90880814	     -0.94363328
      1.57483333	     -3.84540615	      4.47317487	      1.95692932	      0.47147517	      0.91045244	      0.25736744	     26.46633304	     -8.46018641	    -11.65196254	    -56.62171787	     12.95363807	      3.78917859	      7.99901563	      6.56674545	      9.24520266	      1.59692158	    -13.47104106	     10.25476248	     -7.52581910	      1.35242422	     -3.14674027	     -8.67868313	     -1.12344302
      1.57900000	     -3.74577557	      4.31853604	      2.18751204	      0.47629516	      0.91114530	      0.25698977	     26.71955809	     -8.31546742	    -11.85219352	    -55.38389845	     12.83885114	      3.23878380	      7.87201776	      5.85822400	      9.08010638	      1.86794424	    -12.94470126	     10.23896306	     -7.44728289	      1.35879309	     -3.27820264	     -8.47178251	     -1.42738277
